<?xml version="1.0" encoding="UTF-8"?>
<svg width="20px" height="20px" viewBox="0 0 20 20" version="1.1" xmlns="http://www.w3.org/2000/svg" xmlns:xlink="http://www.w3.org/1999/xlink">
    <title>Menu icon/订单管理</title>
    <g id="HR在线" stroke="none" stroke-width="1" fill="none" fill-rule="evenodd" opacity="0.849999964">
        <g id="费用中心-2续费管理-2" transform="translate(-24.000000, -185.000000)">
            <g id="-mockplus-" transform="translate(0.000000, 170.000000)">
                <g id="Menu-icon/订单管理" transform="translate(24.000000, 15.000000)">
                    <rect id="矩形" x="0" y="0" width="20" height="20"></rect>
                    <g id="2订单管理" transform="translate(2.000000, 2.000000)" fill="#42495B" fill-rule="nonzero">
                        <rect id="矩形" opacity="0" x="0" y="0" width="16" height="16"></rect>
                        <path d="M13.1594203,16 L2.8405797,16 C2.07218353,16 1.44927536,15.3770918 1.44927536,14.6086957 L1.44927536,2.55072464 C1.44927536,1.78232847 2.07218353,1.1594203 2.8405797,1.1594203 L4.34782609,1.1594203 C4.66799116,1.1594203 4.92753623,1.41896537 4.92753623,1.73913044 C4.92753623,1.89287913 4.86645981,2.04033067 4.75774307,2.14904741 C4.64902632,2.25776415 4.50157478,2.31884058 4.34782609,2.31884058 L2.8405797,2.31884058 C2.71251368,2.31884059 2.60869566,2.42265862 2.60869566,2.55072464 L2.60869566,14.6086957 L2.8405797,14.8405797 L13.1594203,14.8405797 L13.3913043,14.6086957 L13.3913043,2.55072464 C13.3913043,2.42265862 13.2874863,2.31884059 13.1594203,2.31884058 L11.3043478,2.31884058 C10.9841828,2.31884058 10.7246377,2.05929551 10.7246377,1.73913044 C10.7246377,1.41896537 10.9841828,1.1594203 11.3043478,1.1594203 L13.1594203,1.1594203 C13.9278165,1.1594203 14.5507246,1.78232847 14.5507246,2.55072464 L14.5507246,14.6086957 C14.5507246,15.3770918 13.9278165,16 13.1594203,16 L13.1594203,16 Z M11.3043478,6.95652173 L4.69565217,6.95652173 C4.3754871,6.95652173 4.11594203,6.69697666 4.11594203,6.37681159 C4.11594203,6.05664652 4.3754871,5.79710145 4.69565217,5.79710145 L11.3043478,5.79710145 C11.603019,5.84384966 11.8373098,6.07814041 11.884058,6.37681159 C11.884058,6.69697666 11.6245129,6.95652173 11.3043478,6.95652173 L11.3043478,6.95652173 Z M11.3043478,9.73913044 L4.69565217,9.73913044 C4.3754871,9.73913044 4.11594202,9.47958536 4.11594202,9.15942029 C4.11594202,8.83925521 4.3754871,8.57971014 4.69565217,8.57971014 L11.3043478,8.57971014 C11.6245129,8.57971014 11.884058,8.83925521 11.884058,9.15942029 C11.884058,9.47958536 11.6245129,9.73913044 11.3043478,9.73913044 Z M7.82608695,12.4057971 L4.69565217,12.4057971 C4.3754871,12.4057971 4.11594203,12.146252 4.11594203,11.826087 C4.11594203,11.5059219 4.3754871,11.2463768 4.69565217,11.2463768 L7.82608695,11.2463768 C8.14625202,11.2463768 8.40579709,11.5059219 8.40579709,11.826087 C8.40579709,12.146252 8.14625202,12.4057971 7.82608695,12.4057971 L7.82608695,12.4057971 Z M10.1449275,3.4782675 L5.85507247,3.4782675 C5.43440231,3.47950746 5.03235243,3.30489428 4.7461057,2.99662857 C4.45985897,2.68836286 4.31546486,2.27449789 4.34782609,1.85507247 L4.34782609,1.50724638 C4.34782609,1.10749978 4.50662481,0.724125769 4.78928834,0.441462242 C5.07195186,0.158798716 5.45532588,0 5.85507247,0 L10.1449275,0 C10.9773567,0 11.6521739,0.674817188 11.6521739,1.50724638 L11.6521739,1.85507247 C11.6845351,2.27449789 11.540141,2.68836286 11.2538943,2.99662857 C10.9676476,3.30489428 10.5655977,3.47950746 10.1449275,3.4782675 Z M5.85507247,1.1594203 C5.66297343,1.1594203 5.50724638,1.31514733 5.50724638,1.50724638 L5.50724638,1.85507247 C5.50724638,2.08695653 5.62318841,2.31884058 5.85507247,2.31884058 L10.1449275,2.31884058 C10.3551072,2.26468822 10.4996177,2.07200763 10.4927536,1.85507247 L10.4927536,1.50724637 C10.4341876,1.34542334 10.3067506,1.21798635 10.1449275,1.1594203 L5.85507247,1.1594203 Z" id="形状"></path>
                    </g>
                </g>
            </g>
        </g>
    </g>
</svg>