<?xml version="1.0" encoding="UTF-8"?>
<svg width="20px" height="20px" viewBox="0 0 20 20" version="1.1" xmlns="http://www.w3.org/2000/svg" xmlns:xlink="http://www.w3.org/1999/xlink">
    <title>Menu icon/产品中心</title>
    <g id="HR在线" stroke="none" stroke-width="1" fill="none" fill-rule="evenodd" opacity="0.849999964">
        <g id="费用中心-3订单管理-1暂无订单信息" transform="translate(-24.000000, -85.000000)">
            <g id="-mockplus-" transform="translate(0.000000, 70.000000)">
                <g id="Menu-icon/产品中心" transform="translate(24.000000, 15.000000)">
                    <rect id="矩形" x="0" y="0" width="20" height="20"></rect>
                    <g id="底层架构" fill="#42495B" fill-rule="nonzero">
                        <rect id="矩形" opacity="0" x="0" y="0" width="20" height="20"></rect>
                        <path d="M17.2114583,12.9425 C17.4068378,13.051109 17.4771792,13.2975403 17.3685703,13.4929197 C17.3326261,13.5575807 17.2796474,13.6111535 17.2153914,13.6478166 L10.3219252,17.5810733 C10.1694921,17.6680482 9.98261858,17.6687364 9.82954901,17.5828866 L2.80862858,13.6451707 C2.61496216,13.536552 2.54601737,13.2915014 2.65463608,13.097835 C2.6912815,13.0324965 2.74545299,12.9786958 2.81104167,12.9425 C3.2046858,12.7252634 3.68243236,12.725953 4.07544773,12.944325 L9.8306669,16.1421109 C9.98295013,16.2267244 10.1682959,16.2259746 10.3198895,16.1401317 L15.9579851,12.9474491 C16.346404,12.7274993 16.8213148,12.7256242 17.2114583,12.9425 Z M17.2153914,10.3144832 L10.3219252,14.2477399 C10.1694921,14.3347148 9.98261858,14.335403 9.82954902,14.2495533 L2.80862859,10.3118374 C2.61496216,10.2032186 2.54601737,9.95816812 2.65463609,9.76450169 C2.6912815,9.69916316 2.74545299,9.64536246 2.81104167,9.60916667 L2.9589313,9.52755224 C3.26056481,9.36109265 3.6266426,9.36162104 3.92779432,9.52895068 L9.8306669,12.8087776 C9.98295013,12.8933911 10.1682959,12.8926412 10.3198895,12.8067984 L16.0951095,9.53646635 C16.3983571,9.36474643 16.7691309,9.36328251 17.073725,9.53260249 L17.2114583,9.60916667 C17.4068378,9.71777563 17.4771792,9.96420695 17.3685703,10.1595864 C17.3326261,10.2242474 17.2796474,10.2778202 17.2153914,10.3144832 Z M17.2431604,7.06079021 L10.3213763,10.954203 C10.1691717,11.0398161 9.98332825,11.0398161 9.83112372,10.954203 L2.90933956,7.06079021 C2.66865927,6.92541071 2.58329612,6.62055401 2.71867562,6.37987372 C2.76357088,6.30005808 2.82952392,6.23410504 2.90933956,6.18920979 L9.83112372,2.29579698 C9.98332825,2.21018392 10.1691717,2.21018392 10.3213763,2.29579698 L17.2431604,6.18920979 C17.4838407,6.32458929 17.5692039,6.62944599 17.4338244,6.87012628 C17.3889291,6.94994192 17.3229761,7.01589496 17.2431604,7.06079021 Z M10.07625,3.5925 L4.68416666,6.625 L10.07625,9.6575 L15.4679167,6.625 L10.07625,3.59208334 L10.07625,3.5925 Z" id="形状"></path>
                    </g>
                </g>
            </g>
        </g>
    </g>
</svg>