<?xml version="1.0" encoding="UTF-8"?>
<svg width="20px" height="20px" viewBox="0 0 20 20" version="1.1" xmlns="http://www.w3.org/2000/svg" xmlns:xlink="http://www.w3.org/1999/xlink">
    <title>Menu icon/合同管理</title>
    <g id="HR在线" stroke="none" stroke-width="1" fill="none" fill-rule="evenodd" opacity="0.849999964">
        <g id="费用中心-3订单管理-1暂无订单信息" transform="translate(-24.000000, -285.000000)">
            <g id="-mockplus-" transform="translate(0.000000, 270.000000)">
                <g id="Menu-icon/合同管理" transform="translate(24.000000, 15.000000)">
                    <rect id="矩形" x="0" y="0" width="20" height="20"></rect>
                    <g id="合同管理" transform="translate(2.666985, 2.000000)" fill="#42495B" fill-rule="nonzero">
                        <path d="M10.3230148,12.35 C10.3230148,12.7918278 10.681187,13.15 11.1230148,13.15 C11.5648426,13.15 11.9230148,12.7918278 11.9230148,12.35 C11.9230148,11.9081722 11.5648426,11.55 11.1230148,11.55 C10.681187,11.55 10.3230148,11.9081722 10.3230148,12.35 Z M13.0257331,9 L9.2202966,9 L7.33301485,12.3557641 L9.2202966,15.7115283 L13.0257331,15.7115283 L14.9130148,12.3557641 L13.0257331,9 L13.0257331,9 Z M13.5030148,12.3542282 L12.3021558,14.4884564 L9.93387392,14.4884564 L8.73301485,12.3542282 L9.93316251,10.22 L12.3028672,10.22 L13.5030148,12.3542282 Z M7.03071291,0 C9.40494178,0 11.333015,1.90315171 11.333015,4.25489046 C11.332401,5.54516291 10.7428369,6.76458025 9.73196051,7.56641091 C9.56299314,7.70869196 9.33013775,7.74810847 9.12375644,7.66936442 C8.91737514,7.59062037 8.76995747,7.40611203 8.7387105,7.18743992 C8.70746352,6.9687678 8.79730629,6.75035633 8.97337432,6.61696249 C9.6954419,6.04564783 10.1167885,5.17564109 10.117332,4.25489046 C10.117332,2.57846361 8.73753183,1.215683 7.03071291,1.21568298 C5.32389399,1.21568298 3.94348596,2.57846361 3.94348596,4.25489046 C3.94348596,5.44990684 4.65040562,6.51727649 5.7268929,7.01023594 L5.85271609,7.06494168 L6.16879367,7.19258839 L6.22349941,7.52994042 C6.28428356,7.90011589 6.31467563,8.26907568 6.31467563,8.63621193 C6.31467563,9.58201329 6.11469579,10.2840702 5.6594225,10.7223239 L5.57128549,10.8013433 L5.40230555,10.9411469 L1.33513737,10.9411469 L2.15633124,14.3725129 L5.51587117,14.3725129 C5.82426339,14.3722452 6.08398381,14.6029626 6.12006561,14.9092369 L6.12371266,14.9803543 C6.123672,15.2885147 5.89303249,15.5478862 5.58698863,15.5839409 L5.51587117,15.5881958 L1.94176319,15.5881958 C1.5770583,15.5881958 1.25003957,15.3736278 1.10415761,15.0447855 L1.07376554,14.9669818 L0.0477290911,10.9277744 C-0.0407738267,10.6651943 -0.00497929306,10.3766094 0.144992851,10.1436085 C0.294964994,9.91060766 0.542815543,9.75851367 0.818472114,9.73032662 L0.915726743,9.72546389 L4.90691474,9.72546389 L4.9342676,9.67501304 C5.02544383,9.48536649 5.08622798,9.18873985 5.09716913,8.77723116 L5.09899265,8.63621193 C5.09899265,8.48546725 5.09291423,8.33411472 5.08075741,8.18276218 L5.06556136,8.03991943 L4.95979695,7.98521369 C3.63880772,7.27299133 2.79153859,5.91671378 2.73084219,4.41718413 L2.72780298,4.25489046 C2.72780298,1.90315172 4.6558762,0 7.03071291,0 Z" id="形状"></path>
                    </g>
                </g>
            </g>
        </g>
    </g>
</svg>