<?xml version="1.0" encoding="UTF-8"?>
<svg width="20px" height="20px" viewBox="0 0 20 20" version="1.1" xmlns="http://www.w3.org/2000/svg" xmlns:xlink="http://www.w3.org/1999/xlink">
    <g id="HR在线" stroke="none" stroke-width="1" fill="none" fill-rule="evenodd">
        <g id="费用中心_8激活码激活_3有激活记录" transform="translate(-24.000000, -135.000000)">
            <g id="-mockplus-" transform="translate(0.000000, 120.000000)">
                <g id="Menu-icon/激活码激活" transform="translate(24.000000, 15.000000)">
                    <rect id="矩形" x="0" y="0" width="20" height="20"></rect>
                    <path d="M11.5840179,8.56498915 L10.5127143,9.65818493 L10.9377143,10.0919928 L12.0782321,8.9281483 C12.3164622,8.69328956 12.6951408,8.69664837 12.9293363,8.93569744 C13.1635318,9.17474651 13.1668224,9.56127295 12.9367321,9.80444015 L11.7962143,10.9682846 L13.1607679,12.3611177 C13.6701715,11.9967861 14.2773139,11.8017897 14.8993214,11.802745 C16.5759464,11.802745 17.9350357,13.1900005 17.9350357,14.9013725 C17.9350357,16.6127445 16.5759464,18 14.8993214,18 C13.2226964,18 11.8636071,16.6127445 11.8636071,14.9013725 C11.8636071,14.2986895 12.0323929,13.7359787 12.324125,13.2600295 L8.58291071,9.44159087 C8.42950023,9.28500106 8.36958661,9.05676643 8.42573875,8.84286076 C8.48189088,8.62895509 8.64557792,8.46187575 8.85514053,8.4045599 C9.06470315,8.34724405 9.2883038,8.40839934 9.44171429,8.56498915 L9.65421429,8.78189308 L10.7255179,7.6886973 C10.9626071,7.44676766 11.3469287,7.44676766 11.5840179,7.6886973 C11.8210355,7.93070002 11.8210355,8.32298644 11.5840179,8.56498915 Z M13.0775893,14.9013725 C13.0775893,15.9281673 13.8930706,16.760549 14.8990179,16.760549 C15.9049651,16.760549 16.7204464,15.9281673 16.7204464,14.9013725 C16.7204464,13.8745777 15.9049651,13.042196 14.8990179,13.042196 C13.8930706,13.042196 13.0775893,13.8745777 13.0775893,14.9013725 Z M17.3928571,2 C17.7281729,2 18,2.27746056 18,2.6197255 L18,10.6473397 C17.9864312,10.974345 17.7263029,11.2343317 17.4057223,11.2412939 C17.0851417,11.2482562 16.8144151,10.9997983 16.7872321,10.6736781 L16.7863214,10.6473397 L16.7857143,3.54931375 C16.7857143,3.37818127 16.6498007,3.239451 16.4821429,3.239451 L3.51785714,3.239451 C3.36395407,3.23947172 3.23441737,3.35704611 3.21641071,3.5130598 L3.21428571,3.54931375 L3.21428571,15.9438237 C3.21430602,16.1009163 3.32949323,16.2331376 3.48233929,16.2515174 L3.51785714,16.2536865 L9.808125,16.2536865 C10.1356267,16.2521905 10.4052692,16.5160964 10.4175573,16.8501533 C10.4298455,17.1842103 10.1803502,17.4680122 9.85366071,17.4915881 L9.808125,17.4931375 L2.60714286,17.4931375 C2.27182712,17.4931375 2,17.2156769 2,16.873412 L2,2.6197255 C2,2.27746056 2.27182712,2 2.60714286,2 L17.3928571,2 Z M14.0535714,5.25355886 C14.3888872,5.25355886 14.6607143,5.53101942 14.6607143,5.87328436 C14.6607143,6.2155493 14.3888872,6.49300986 14.0535714,6.49300986 L4.94642857,6.49300986 C4.61111283,6.49300986 4.33928571,6.2155493 4.33928571,5.87328436 C4.33928571,5.53101942 4.61111283,5.25355886 4.94642857,5.25355886 L14.0535714,5.25355886 Z M7.05357143,12.2535589 C7.38888717,12.2535589 7.66071429,12.5310194 7.66071429,12.8732844 C7.66071429,13.2155493 7.38888717,13.4930099 7.05357143,13.4930099 L4.94642857,13.4930099 C4.61111283,13.4930099 4.33928571,13.2155493 4.33928571,12.8732844 C4.33928571,12.5310194 4.61111283,12.2535589 4.94642857,12.2535589 L7.05357143,12.2535589 Z" id="形状" stroke="#42495B" stroke-width="0.1" fill="#42495B" fill-rule="nonzero"></path>
                </g>
            </g>
        </g>
    </g>
</svg>
