<?xml version="1.0" encoding="UTF-8"?>
<svg width="20px" height="20px" viewBox="0 0 20 20" version="1.1" xmlns="http://www.w3.org/2000/svg" xmlns:xlink="http://www.w3.org/1999/xlink">
    <title>Menu icon/消费记录</title>
    <g id="HR在线" stroke="none" stroke-width="1" fill="none" fill-rule="evenodd" opacity="0.849999964">
        <g id="费用中心-3订单管理-1暂无订单信息" transform="translate(-24.000000, -235.000000)">
            <g id="-mockplus-" transform="translate(0.000000, 220.000000)">
                <g id="Menu-icon/消费记录" transform="translate(24.000000, 15.000000)">
                    <rect id="矩形" x="0" y="0" width="20" height="20"></rect>
                    <path d="M12.9175,10.495 C13.1708333,10.6758333 13.23,11.0283333 13.0491667,11.2816667 L12.0958333,12.6158333 L17.0416667,12.6158333 C17.2482449,12.6078896 17.4426232,12.7135685 17.5482739,12.8912637 C17.6539245,13.068959 17.6539245,13.2902077 17.5482739,13.4679029 C17.4426232,13.6455982 17.2482449,13.7512771 17.0416667,13.7433333 L11,13.7433333 C10.7889497,13.742943 10.5957665,13.6247873 10.4992825,13.4370822 C10.4027986,13.249377 10.4191509,13.0235162 10.5416667,12.8516667 L12.1308333,10.6266667 C12.311761,10.3731629 12.6638862,10.3142267 12.9175,10.495 Z" id="路径" fill="#42495B" fill-rule="nonzero"></path>
                    <path d="M4.71138373,3.03083334 C4.37656908,3.03083334 4.10500944,3.30199147 4.10451488,3.63680575 L4.10451488,5.76756976 L3.00103551,5.76756976 C2.84008389,5.76756975 2.68572442,5.83150753 2.57191443,5.94531752 C2.45810445,6.0591275 2.39416666,6.21348697 2.39416666,6.37443859 L2.39416666,15.2668151 C2.39416666,15.602072 2.66577856,15.8736839 3.00103551,15.8736839 L15.9989648,15.8736839 C16.3248152,15.8611536 16.5825143,15.5933545 16.5825143,15.2672633 C16.5825143,14.9411721 16.3248152,14.6733729 15.9989648,14.6608426 L3.60790434,14.6608426 L3.60790434,6.97951461 L15.392096,6.97951461 L15.392096,10.4781986 C15.392096,10.813363 15.6638004,11.0850675 15.9989648,11.0850675 C16.3341292,11.0850675 16.6058337,10.813363 16.6058337,10.4781986 L16.6058337,6.37264578 C16.6053391,6.03783149 16.3337795,5.76667297 15.9989648,5.76667334 L14.8954854,5.76667334 L14.8954854,3.63680575 C14.8949909,3.30199147 14.6234312,3.03083334 14.2886166,3.03083334 L4.71138373,3.03083334 Z M13.6817478,5.76667334 L5.31825256,5.76667334 L5.31825256,4.24277819 L13.6817478,4.24277819 L13.6817478,5.76667334 Z" id="形状" fill="#42495B" fill-rule="nonzero"></path>
                    <path d="M7.8,9.04583334 C7.8,8.735 8.0525,8.4825 8.36416666,8.4825 L9.63583334,8.4825 C9.93875534,8.4941486 10.1783215,8.74310412 10.1783215,9.04625 C10.1783215,9.34939588 9.93875534,9.5983514 9.63583334,9.61 L8.36416666,9.61 C8.05258602,9.61 7.8,9.35741398 7.8,9.04583334 L7.8,9.04583334 Z M5.18416666,8.4825 C4.88124466,8.4941486 4.64167851,8.74310412 4.64167851,9.04625 C4.64167851,9.34939588 4.88124466,9.5983514 5.18416666,9.61 L6.45583334,9.61 C6.75875534,9.5983514 6.99832149,9.34939588 6.99832149,9.04625 C6.99832149,8.74310412 6.75875534,8.4941486 6.45583334,8.4825 L5.18416666,8.4825 L5.18416666,8.4825 Z" id="形状" fill="#42495B" fill-rule="nonzero"></path>
                </g>
            </g>
        </g>
    </g>
</svg>