<?xml version="1.0" encoding="UTF-8"?>
<svg width="20px" height="20px" viewBox="0 0 20 20" version="1.1" xmlns="http://www.w3.org/2000/svg" xmlns:xlink="http://www.w3.org/1999/xlink">
    <title>icon/20/fanhui</title>
    <g id="HR在线" stroke="none" stroke-width="1" fill="none" fill-rule="evenodd">
        <g id="费用中心-2续费管理-1暂无生效服务" transform="translate(-24.000000, -22.000000)">
            <g id="icon/20/fanhui" transform="translate(24.000000, 22.000000)">
                <path d="M10,0 C4.47723214,0 0,4.47723214 0,10 C0,15.5227679 4.47723214,20 10,20 C15.5227679,20 20,15.5227679 20,10 C20,4.47723214 15.5227679,0 10,0 Z" id="路径" fill="#F4F4F4"></path>
                <path d="M9.17732143,13.8325893 L5.95071429,10.6061607 C5.61642857,10.271875 5.61642857,9.72830357 5.95071429,9.39401786 L9.17732143,6.16741071 C9.40053571,5.94419643 9.76214286,5.94419643 9.98535714,6.16741071 C10.2085714,6.390625 10.2085714,6.75223214 9.98535714,6.97544643 L6.96071429,10.0000893 L9.98535714,13.0247321 C10.2085714,13.2479464 10.2085714,13.6095536 9.98535714,13.8327679 C9.87375,13.944375 9.7275,14.0002679 9.58142857,14.0002679 C9.43535714,14.0002679 9.28875,13.944375 9.17732143,13.8325893 Z M6.781375,10.243125 L6.812375,10.243125 L6.781375,10.243125 Z" id="形状" fill="#42495B" fill-rule="nonzero"></path>
                <line x1="6.746875" y1="10" x2="14.964961" y2="10" id="路径-2" stroke="#42495B" stroke-width="1.2" stroke-linecap="round" stroke-linejoin="round"></line>
            </g>
        </g>
    </g>
</svg>