<?xml version="1.0" encoding="UTF-8"?>
<svg width="20px" height="20px" viewBox="0 0 20 20" version="1.1" xmlns="http://www.w3.org/2000/svg" xmlns:xlink="http://www.w3.org/1999/xlink">
    <title>Menu icon/发票管理</title>
    <g id="HR在线" stroke="none" stroke-width="1" fill="none" fill-rule="evenodd" opacity="0.849999964">
        <g id="费用中心-3订单管理-1暂无订单信息" transform="translate(-24.000000, -335.000000)">
            <g id="-mockplus-" transform="translate(0.000000, 320.000000)">
                <g id="Menu-icon/发票管理" transform="translate(24.000000, 15.000000)">
                    <rect id="矩形" x="0" y="0" width="20" height="20"></rect>
                    <g id="发票管理" transform="translate(2.000000, 3.142857)" fill="#42495B" fill-rule="nonzero">
                        <path d="M4.57142858,8.57142858 L4.57142858,7.42857144 L3.42857142,7.42857144 C3.11298014,7.42857142 2.85714287,7.17273414 2.85714287,6.85714286 C2.85714287,6.54155158 3.11298014,6.28571429 3.42857142,6.28571428 L4.33485714,6.28571428 L3.024,4.976 C2.87946055,4.83146055 2.82301147,4.62078971 2.87591658,4.42334515 C2.92882169,4.22590059 3.08304345,4.07167883 3.28048801,4.01877372 C3.47793257,3.96586861 3.68860341,4.02231769 3.83314286,4.16685714 L5.14285714,5.47771428 L6.45257142,4.16685714 C6.67601005,3.94341851 7.03827565,3.94341851 7.26171428,4.16685714 C7.48515291,4.39029577 7.48515291,4.75256137 7.26171428,4.976 L5.95085714,6.28571428 L6.85714286,6.28571428 C7.17273414,6.28571429 7.42857141,6.54155158 7.42857141,6.85714286 C7.42857141,7.17273414 7.17273414,7.42857142 6.85714286,7.42857144 L5.71428572,7.42857144 L5.71428572,8.57142858 L6.85714286,8.57142858 C7.17269724,8.57148076 7.42847695,8.82730276 7.42847695,9.14285715 C7.42847695,9.45841154 7.17269724,9.71423354 6.85714286,9.71428572 L5.71428572,9.71428572 L5.71428572,10.2857143 C5.71431948,10.4898886 5.60541319,10.6785678 5.42859871,10.7806647 C5.25178423,10.8827616 5.03393006,10.8827616 4.85711558,10.7806647 C4.6803011,10.6785678 4.57139482,10.4898886 4.57142858,10.2857143 L4.57142858,9.71428572 L3.42857142,9.71428572 C3.11301704,9.71423354 2.85723733,9.45841154 2.85723733,9.14285715 C2.85723733,8.82730276 3.11301704,8.57148076 3.42857142,8.57142858 L4.57142858,8.57142858 L4.57142858,8.57142858 Z M11.4285714,0 C11.4285714,0.631182574 11.940246,1.14285715 12.5714286,1.14285715 C13.2026111,1.14285715 13.7142857,0.631182574 13.7142857,0 L14.8571429,0 C15.4883254,0 16,0.511674571 16,1.14285714 L16,12.5714286 C16,13.2026111 15.4883254,13.7142857 14.8571429,13.7142857 L1.14285714,13.7142857 C0.839752581,13.7142857 0.549062396,13.5938779 0.334735107,13.3795506 C0.120407817,13.1652233 0,12.8745331 0,12.5714286 L0,1.14285714 C0,0.511674571 0.511674571,0 1.14285714,0 L2.28571428,0 C2.28571428,0.408303537 2.50354162,0.785591567 2.85714285,0.989743338 C3.21074409,1.19389511 3.64639877,1.19389511 4,0.989743338 C4.35360124,0.785591567 4.57142858,0.408303537 4.57142858,0 L6.85714286,0 C6.85714285,0.408303539 7.07497018,0.785591572 7.42857142,0.989743345 C7.78217265,1.19389512 8.21782735,1.19389512 8.57142858,0.989743345 C8.92502982,0.785591572 9.14285715,0.408303539 9.14285714,0 L11.4285714,0 L11.4285714,0 Z M9.97942858,1.14285714 C9.57110987,1.85000294 8.81656558,2.28561373 8,2.28561373 C7.18343442,2.28561373 6.42889013,1.85000294 6.02057142,1.14285714 L5.408,1.14285714 C4.99968129,1.85000293 4.245137,2.28561372 3.42857143,2.28561372 C2.61200585,2.28561372 1.85746157,1.85000293 1.44914286,1.14285714 L1.14285714,1.14285714 L1.14285714,12.5714286 L14.8571429,12.5714286 L14.8571429,1.14285714 L14.5508571,1.14285714 C14.1425384,1.85000293 13.3879941,2.28561372 12.5714286,2.28561372 C11.754863,2.28561372 11.0003187,1.85000293 10.592,1.14285714 L9.97942858,1.14285714 Z M10.2857143,6.28571428 L13.1428571,6.28571428 C13.3470089,6.28571428 13.5356529,6.39462794 13.6377288,6.57142856 C13.7398047,6.74822918 13.7398047,6.96605653 13.6377288,7.14285716 C13.5356529,7.31965778 13.3470089,7.42857144 13.1428571,7.42857144 L10.2857143,7.42857144 C9.970123,7.42857144 9.71428573,7.17273414 9.71428573,6.85714286 C9.71428573,6.54155158 9.970123,6.28571428 10.2857143,6.28571428 Z M10.2857143,8.57142857 L12,8.57142857 C12.2041743,8.57139482 12.3928535,8.6803011 12.4949504,8.85711558 C12.5970473,9.03393006 12.5970473,9.25178423 12.4949504,9.42859871 C12.3928535,9.60541319 12.2041743,9.71431948 12,9.71428573 L10.2857143,9.71428573 C9.9701599,9.71423354 9.71438019,9.45841154 9.71438019,9.14285715 C9.71438019,8.82730276 9.9701599,8.57148076 10.2857143,8.57142857 L10.2857143,8.57142857 Z" id="形状"></path>
                    </g>
                </g>
            </g>
        </g>
    </g>
</svg>