<?xml version="1.0" encoding="UTF-8"?>
<svg width="20px" height="20px" viewBox="0 0 20 20" version="1.1" xmlns="http://www.w3.org/2000/svg" xmlns:xlink="http://www.w3.org/1999/xlink">
    <title>Menu icon/续费管理</title>
    <g id="HR在线" stroke="none" stroke-width="1" fill="none" fill-rule="evenodd" opacity="0.849999964">
        <g id="费用中心-3订单管理-1暂无订单信息" transform="translate(-24.000000, -135.000000)">
            <g id="-mockplus-" transform="translate(0.000000, 120.000000)">
                <g id="Menu-icon/续费管理" transform="translate(24.000000, 15.000000)">
                    <rect id="矩形" x="0" y="0" width="20" height="20"></rect>
                    <g id="发票" fill="#42495B" fill-rule="nonzero">
                        <rect id="矩形" opacity="0" x="0" y="0" width="20" height="20"></rect>
                        <path d="M18.0941667,3.5 L18.0941667,8.16666666 C18.0941667,8.71895141 17.6464514,9.16666666 17.0941667,9.16666666 L15.5666667,9.16666666 L15.5666667,9.16666666 L15.5670456,17.2519436 C15.5670585,17.5280859 15.3432114,17.7519541 15.067069,17.751967 C14.9900947,17.7519706 14.9141589,17.7342021 14.8451777,17.7000459 L12.515,16.54625 L12.515,16.54625 L10.1596735,17.7364618 C10.0178738,17.8081171 9.85045949,17.8081171 9.70865985,17.7364618 L7.35333334,16.54625 L7.35333334,16.54625 L5.038509,17.6898437 C4.79093141,17.8121546 4.49107757,17.7106059 4.3687667,17.4630283 C4.33474723,17.3941672 4.31704918,17.3183944 4.31704558,17.2415883 L4.31666666,9.16666666 L4.31666666,9.16666666 L2.84416666,9.16666666 C2.29188191,9.16666666 1.84416666,8.71895141 1.84416666,8.16666666 L1.84416666,3.5 C1.84416666,2.94771525 2.29188191,2.5 2.84416666,2.5 L17.0941667,2.5 C17.6464514,2.5 18.0941667,2.94771525 18.0941667,3.5 Z M14.1166667,6.45791666 L5.76666666,6.45791666 C5.65620971,6.45791666 5.56666666,6.54745971 5.56666666,6.65791666 L5.56666666,15.7127564 C5.56666666,15.8232133 5.65620971,15.9127564 5.76666666,15.9127564 C5.797382,15.9127564 5.82768465,15.9056818 5.85522479,15.8920814 L7.13570661,15.2597263 C7.27665883,15.1901182 7.44214094,15.190853 7.58246949,15.2617099 L9.70885379,16.3353981 C9.85054697,16.4069441 10.0177946,16.4069604 10.1595017,16.3354421 L12.2869032,15.2617616 C12.4273519,15.1908784 12.5929715,15.1902314 12.7339696,15.2600151 L14.0279523,15.900441 C14.126948,15.9494366 14.2469188,15.9089035 14.2959144,15.8099077 C14.309565,15.7823266 14.3166667,15.7519675 14.3166667,15.7211933 L14.3166667,6.65791666 C14.3166667,6.54745971 14.2271236,6.45791666 14.1166667,6.45791666 Z M12.4404167,11.8525 C12.4404167,12.197678 12.1605946,12.4775 11.8154167,12.4775 L8.06541666,12.4775 C7.72023869,12.4775 7.44041666,12.197678 7.44041666,11.8525 C7.44041666,11.507322 7.72023869,11.2275 8.06541666,11.2275 L11.8154167,11.2275 C12.1605946,11.2275 12.4404167,11.507322 12.4404167,11.8525 Z M12.4404167,8.98041666 C12.4404167,9.32559463 12.1605946,9.60541666 11.8154167,9.60541666 L8.06541666,9.60541666 C7.72023869,9.60541666 7.44041666,9.32559463 7.44041666,8.98041666 C7.44041666,8.63523869 7.72023869,8.35541666 8.06541666,8.35541666 L11.8154167,8.35541666 C12.1605946,8.35541666 12.4404167,8.63523869 12.4404167,8.98041666 Z M16.6441667,3.74958334 L3.29416666,3.74958334 C3.18370971,3.74958334 3.09416666,3.83912639 3.09416666,3.94958334 L3.09416666,7.71625 C3.09416666,7.82670695 3.18370971,7.91625 3.29416666,7.91625 L4.31666666,7.91625 L4.31666666,7.91625 L4.31692949,6.20791665 C4.31716831,5.65569201 4.76485867,5.20807052 5.31708334,5.20791666 L14.5670833,5.20791666 C15.1193681,5.20776282 15.5670833,5.65547807 15.5670833,6.20776282 C15.5670833,6.2078141 15.5670833,6.20786539 15.5669295,6.20791665 L15.5666667,7.91625 L15.5666667,7.91625 L16.6441667,7.91625 C16.7546236,7.91625 16.8441667,7.82670695 16.8441667,7.71625 L16.8441667,3.94958334 C16.8441667,3.83912639 16.7546236,3.74958334 16.6441667,3.74958334 Z" id="形状"></path>
                    </g>
                </g>
            </g>
        </g>
    </g>
</svg>