<?xml version="1.0" encoding="UTF-8"?>
<svg width="20px" height="20px" viewBox="0 0 20 20" version="1.1" xmlns="http://www.w3.org/2000/svg" xmlns:xlink="http://www.w3.org/1999/xlink">
    <title>Menu icon/邮寄地址</title>
    <g id="HR在线" stroke="none" stroke-width="1" fill="none" fill-rule="evenodd" opacity="0.849999964">
        <g id="费用中心-3订单管理-1暂无订单信息" transform="translate(-24.000000, -385.000000)">
            <g id="-mockplus-" transform="translate(0.000000, 370.000000)">
                <g id="Menu-icon/邮寄地址" transform="translate(24.000000, 15.000000)">
                    <rect id="矩形" x="0" y="0" width="20" height="20"></rect>
                    <path d="M13.0062484,11.1622048 L10,14.2569821 L6.99428486,11.1622048 C5.31330293,9.43215866 5.31330293,6.6147007 6.99428486,4.88465457 C8.65820097,3.17167426 11.3423323,3.17167426 13.0062484,4.88465457 C14.6861638,6.61470068 14.6861638,9.43215865 13.0062484,11.1622048 Z M13.7710099,11.9056339 C15.8535716,9.76174203 15.8535716,6.2851173 13.7710099,4.14122538 C12.7854054,3.11412867 11.4234971,2.53349249 10,2.53349249 C8.57650294,2.53349249 7.21459462,3.11412867 6.22899011,4.14122538 C4.14642843,6.2851173 4.14642843,9.76120873 6.22899011,11.9056339 L7.4859934,13.1994354 L4.82106109,13.1994354 C4.4526081,13.1994108 4.11023415,13.3895514 3.91550674,13.7023434 L2.08039926,16.6509947 C1.97811629,16.8155083 1.97308523,17.0225487 2.06725688,17.1918361 C2.16142852,17.3611235 2.33999216,17.4658871 2.53370973,17.4658871 L17.4662903,17.4658871 C17.6600078,17.4658871 17.8385715,17.3611235 17.9327431,17.1918361 C18.0269148,17.0225487 18.0218837,16.8155083 17.9196007,16.6509947 L16.0850266,13.7023434 C15.8900988,13.389229 15.5472379,13.1990421 15.1784056,13.1994354 L12.5134733,13.1994354 L13.7704766,11.9056339 L13.7710099,11.9056339 Z M4.82159439,14.2660483 L8.52274113,14.2660483 L9.24643799,15.0110774 C9.44355212,15.2164291 9.71588738,15.3325128 10.0005333,15.3325128 C10.2851792,15.3325128 10.5575145,15.2164291 10.7546286,15.0110774 L11.4777922,14.2660483 L15.1789389,14.2660483 L16.5063386,16.3992741 L3.49366134,16.3992741 L4.82106109,14.2660483 L4.82159439,14.2660483 Z M11.0666129,7.33306447 C11.066659,6.95196964 10.8633738,6.59980376 10.5333437,6.40924302 C10.2033136,6.21868229 9.7966864,6.21868229 9.46665628,6.40924302 C9.13662616,6.59980376 8.93334098,6.95196964 8.93338709,7.33306447 C8.93345839,7.92208809 9.41097637,8.39954828 9.99999999,8.39954828 C10.5890236,8.39954828 11.0665416,7.92208809 11.0666129,7.33306447 Z M12.1332258,7.33306447 C12.1332258,8.51121254 11.1781481,9.46629026 9.99999999,9.46629026 C8.82185192,9.46629026 7.8667742,8.51121254 7.8667742,7.33306447 C7.8667742,6.1549164 8.82185192,5.19983868 9.99999999,5.19983868 C11.1781481,5.19983868 12.1332258,6.1549164 12.1332258,7.33306447 L12.1332258,7.33306447 Z" id="形状" stroke="#42495B" stroke-width="0.1" fill="#42495B" fill-rule="nonzero"></path>
                </g>
            </g>
        </g>
    </g>
</svg>